HIERARCHY
ROOT Hips
{
	OFFSET 0.000000 121.760803 0.000000
	CHANNELS 6 Xposition Yposition Zposition Xrotation Yrotation Zrotation 
	JOINT Spine
	{
		OFFSET 0.072000 7.257294 -0.789700
		CHANNELS 3 Xrotation Yrotation Zrotation
		JOINT Spine1
		{
			OFFSET 0.000000 12.508769 -0.658067
			CHANNELS 3 Xrotation Yrotation Zrotation
			JOINT Spine1_split
			{
				OFFSET 0.000000 12.508769 -0.658067
				CHANNELS 3 Xrotation Yrotation Zrotation
				JOINT Spine2
				{
					OFFSET 0.000000 12.508769 -0.658067
					CHANNELS 3 Xrotation Yrotation Zrotation
					JOINT Neck
					{
						OFFSET 0.000000 14.033295 7.520400
						CHANNELS 3 Xrotation Yrotation Zrotation
						JOINT Head
						{
							OFFSET 0.000000 8.198502 5.703100
							CHANNELS 3 Xrotation Yrotation Zrotation
							JOINT HeadTop_End
							{
								OFFSET 0.000000 17.760803 13.332701
								CHANNELS 3 Xrotation Yrotation Zrotation
								End Site
								{
									OFFSET 0.000000 0.000000 0.000000
								}
							}
						}
					}
					JOINT LeftShoulder
					{
						OFFSET 6.292450 5.785301 -0.669000
						CHANNELS 3 Xrotation Yrotation Zrotation
						JOINT LeftShoulder_split
						{
							OFFSET 6.292450 5.785301 -0.669000
							CHANNELS 3 Xrotation Yrotation Zrotation
							JOINT LeftArm
							{
								OFFSET 13.907140 -6.093903 1.965100
								CHANNELS 3 Xrotation Yrotation Zrotation
								JOINT LeftForeArm
								{
									OFFSET 34.140198 0.000000 0.000000
									CHANNELS 3 Xrotation Yrotation Zrotation
									JOINT LeftHand
									{
										OFFSET 40.960209 0.000000 0.000000
										CHANNELS 3 Xrotation Yrotation Zrotation
										JOINT LeftHandThumb1
										{
											OFFSET 10.006996 -7.170425 9.573125
											CHANNELS 3 Xrotation Yrotation Zrotation
											JOINT LeftHandThumb2
											{
												OFFSET 1.835007 -1.059448 1.059443
												CHANNELS 3 Xrotation Yrotation Zrotation
												JOINT LeftHandThumb3
												{
													OFFSET 2.112267 -1.219513 1.219518
													CHANNELS 3 Xrotation Yrotation Zrotation
													JOINT LeftHandThumb4
													{
														OFFSET 4.843811 -2.796570 2.796576
														CHANNELS 3 Xrotation Yrotation Zrotation
														End Site
														{
															OFFSET 0.000000 0.000000 0.000000
														}
													}
												}
											}
										}
										JOINT LeftHandIndex1
										{
											OFFSET 18.389847 -0.922348 4.596882
											CHANNELS 3 Xrotation Yrotation Zrotation
											JOINT LeftHandIndex2
											{
												OFFSET 4.711273 0.000000 0.000000
												CHANNELS 3 Xrotation Yrotation Zrotation
												JOINT LeftHandIndex3
												{
													OFFSET 2.886131 0.000000 0.000000
													CHANNELS 3 Xrotation Yrotation Zrotation
													JOINT LeftHandIndex4
													{
														OFFSET 6.145912 0.000000 0.000000
														CHANNELS 3 Xrotation Yrotation Zrotation
														End Site
														{
															OFFSET 0.000000 0.000000 0.000000
														}
													}
												}
											}
										}
										JOINT LeftHandMiddle1
										{
											OFFSET 18.013008 0.000000 0.000000
											CHANNELS 3 Xrotation Yrotation Zrotation
											JOINT LeftHandMiddle2
											{
												OFFSET 4.946693 0.000000 0.000000
												CHANNELS 3 Xrotation Yrotation Zrotation
												JOINT LeftHandMiddle3
												{
													OFFSET 3.342232 0.000000 0.000000
													CHANNELS 3 Xrotation Yrotation Zrotation
													JOINT LeftHandMiddle4
													{
														OFFSET 4.461754 0.000000 0.000000
														CHANNELS 3 Xrotation Yrotation Zrotation
														End Site
														{
															OFFSET 0.000000 0.000000 0.000000
														}
													}
												}
											}
										}
										JOINT LeftHandRing1
										{
											OFFSET 15.849892 -0.102921 -4.126150
											CHANNELS 3 Xrotation Yrotation Zrotation
											JOINT LeftHandRing2
											{
												OFFSET 3.527054 0.000000 0.000000
												CHANNELS 3 Xrotation Yrotation Zrotation
												JOINT LeftHandRing3
												{
													OFFSET 2.961098 0.000000 0.000000
													CHANNELS 3 Xrotation Yrotation Zrotation
													JOINT LeftHandRing4
													{
														OFFSET 4.927200 0.000000 0.000000
														CHANNELS 3 Xrotation Yrotation Zrotation
														End Site
														{
															OFFSET 0.000000 0.000000 0.000000
														}
													}
												}
											}
										}
										JOINT LeftHandPinky1
										{
											OFFSET 12.791824 -0.832031 -6.799156
											CHANNELS 3 Xrotation Yrotation Zrotation
											JOINT LeftHandPinky2
											{
												OFFSET 3.327133 0.000000 0.000000
												CHANNELS 3 Xrotation Yrotation Zrotation
												JOINT LeftHandPinky3
												{
													OFFSET 3.014900 0.000000 0.000000
													CHANNELS 3 Xrotation Yrotation Zrotation
													JOINT LeftHandPinky4
													{
														OFFSET 5.847786 0.000000 0.000000
														CHANNELS 3 Xrotation Yrotation Zrotation
														End Site
														{
															OFFSET 0.000000 0.000000 0.000000
														}
													}
												}
											}
										}
									}
								}
							}
						}
					}
					JOINT RightShoulder
					{
						OFFSET -6.292450 5.785301 -0.669000
						CHANNELS 3 Xrotation Yrotation Zrotation
						JOINT RightShoulder_split
						{
							OFFSET -6.292450 5.785301 -0.669000
							CHANNELS 3 Xrotation Yrotation Zrotation
							JOINT RightArm
							{
								OFFSET -13.907140 -6.093903 1.965100
								CHANNELS 3 Xrotation Yrotation Zrotation
								JOINT RightForeArm
								{
									OFFSET -34.140198 0.000000 0.000000
									CHANNELS 3 Xrotation Yrotation Zrotation
									JOINT RightHand
									{
										OFFSET -40.960209 0.000000 0.000000
										CHANNELS 3 Xrotation Yrotation Zrotation
										JOINT RightHandThumb1
										{
											OFFSET -10.007050 -7.170456 9.573117
											CHANNELS 3 Xrotation Yrotation Zrotation
											JOINT RightHandThumb2
											{
												OFFSET -1.835007 -1.059448 1.059443
												CHANNELS 3 Xrotation Yrotation Zrotation
												JOINT RightHandThumb3
												{
													OFFSET -2.112267 -1.219513 1.219518
													CHANNELS 3 Xrotation Yrotation Zrotation
													JOINT RightHandThumb4
													{
														OFFSET -4.843834 -2.796585 2.796590
														CHANNELS 3 Xrotation Yrotation Zrotation
														End Site
														{
															OFFSET 0.000000 0.000000 0.000000
														}
													}
												}
											}
										}
										JOINT RightHandIndex1
										{
											OFFSET -18.389870 -0.922424 4.596786
											CHANNELS 3 Xrotation Yrotation Zrotation
											JOINT RightHandIndex2
											{
												OFFSET -4.711273 0.000000 0.000000
												CHANNELS 3 Xrotation Yrotation Zrotation
												JOINT RightHandIndex3
												{
													OFFSET -2.886131 0.000000 0.000000
													CHANNELS 3 Xrotation Yrotation Zrotation
													JOINT RightHandIndex4
													{
														OFFSET -6.145920 0.000000 0.000000
														CHANNELS 3 Xrotation Yrotation Zrotation
														End Site
														{
															OFFSET 0.000000 0.000000 0.000000
														}
													}
												}
											}
										}
										JOINT RightHandMiddle1
										{
											OFFSET -18.013008 0.000000 0.000000
											CHANNELS 3 Xrotation Yrotation Zrotation
											JOINT RightHandMiddle2
											{
												OFFSET -4.946693 0.000000 0.000000
												CHANNELS 3 Xrotation Yrotation Zrotation
												JOINT RightHandMiddle3
												{
													OFFSET -3.342232 0.000000 0.000000
													CHANNELS 3 Xrotation Yrotation Zrotation
													JOINT RightHandMiddle4
													{
														OFFSET -4.461754 0.000000 0.000000
														CHANNELS 3 Xrotation Yrotation Zrotation
														End Site
														{
															OFFSET 0.000000 0.000000 0.000000
														}
													}
												}
											}
										}
										JOINT RightHandRing1
										{
											OFFSET -15.849876 -0.102936 -4.126237
											CHANNELS 3 Xrotation Yrotation Zrotation
											JOINT RightHandRing2
											{
												OFFSET -3.527054 0.000000 0.000000
												CHANNELS 3 Xrotation Yrotation Zrotation
												JOINT RightHandRing3
												{
													OFFSET -2.961098 0.000000 0.000000
													CHANNELS 3 Xrotation Yrotation Zrotation
													JOINT RightHandRing4
													{
														OFFSET -4.927200 0.000000 0.000000
														CHANNELS 3 Xrotation Yrotation Zrotation
														End Site
														{
															OFFSET 0.000000 0.000000 0.000000
														}
													}
												}
											}
										}
										JOINT RightHandPinky1
										{
											OFFSET -12.791786 -0.832077 -6.799222
											CHANNELS 3 Xrotation Yrotation Zrotation
											JOINT RightHandPinky2
											{
												OFFSET -3.327133 0.000000 0.000000
												CHANNELS 3 Xrotation Yrotation Zrotation
												JOINT RightHandPinky3
												{
													OFFSET -3.014900 0.000000 0.000000
													CHANNELS 3 Xrotation Yrotation Zrotation
													JOINT RightHandPinky4
													{
														OFFSET -5.847786 0.000000 0.000000
														CHANNELS 3 Xrotation Yrotation Zrotation
														End Site
														{
															OFFSET 0.000000 0.000000 0.000000
														}
													}
												}
											}
										}
									}
								}
							}
						}
					}
				}
			}
		}
	}
	JOINT LeftUpLeg
	{
		OFFSET 13.026900 -6.336304 -1.092800
		CHANNELS 3 Xrotation Yrotation Zrotation
		JOINT LeftLeg
		{
			OFFSET 0.524474 -46.096886 9.782700
			CHANNELS 3 Xrotation Yrotation Zrotation
			JOINT LeftFoot
			{
				OFFSET -0.524474 -53.427422 -12.948200
				CHANNELS 3 Xrotation Yrotation Zrotation
				JOINT LeftToeBase
				{
					OFFSET 0.192200 -14.009700 16.364100
					CHANNELS 3 Xrotation Yrotation Zrotation
					JOINT LeftToe_End
					{
						OFFSET -1.784700 -0.561700 9.474800
						CHANNELS 3 Xrotation Yrotation Zrotation
						End Site
						{
							OFFSET 0.000000 0.000000 0.000000
						}
					}
				}
			}
		}
	}
	JOINT RightUpLeg
	{
		OFFSET -12.883000 -6.336304 -1.092800
		CHANNELS 3 Xrotation Yrotation Zrotation
		JOINT RightLeg
		{
			OFFSET -0.524587 -46.096825 9.782800
			CHANNELS 3 Xrotation Yrotation Zrotation
			JOINT RightFoot
			{
				OFFSET 0.524587 -53.427383 -12.948300
				CHANNELS 3 Xrotation Yrotation Zrotation
				JOINT RightToeBase
				{
					OFFSET -0.192200 -14.009700 16.364100
					CHANNELS 3 Xrotation Yrotation Zrotation
					JOINT RightToe_End
					{
						OFFSET 1.784700 -0.561700 9.474800
						CHANNELS 3 Xrotation Yrotation Zrotation
						End Site
						{
							OFFSET 0.000000 0.000000 0.000000
						}
					}
				}
			}
		}
	}
}
MOTION
Frames: 4
Frame Time: 0.016667
-38.905144 50.867874 332.709229 190.004880 13.518970 -177.308296 16.799028 -4.006370 -8.874011 3.969195 -0.741152 -2.119501 0.000000 0.000000 0.000000 3.979509 -0.739453 -2.101520 0.912700 0.186791 0.154901 -20.090704 -2.727744 8.655179 -0.000000 -0.000002 -0.000000 1.384114 -5.715087 -11.757634 0.000000 0.000000 0.000000 -18.360588 -40.146230 -47.046138 -180.000019 -123.144554 -180.000032 40.891878 -11.279969 -14.873587 -9.353697 -4.410874 -1.012466 21.377785 38.831138 0.008457 -0.454416 -2.425694 17.060585 -0.000000 -0.000000 -0.000001 1.241266 5.556521 -31.143743 2.581718 4.855094 -55.983891 0.249915 1.694456 -16.778561 0.000004 -0.000001 -0.000003 2.333424 7.138700 -41.308240 3.977887 5.544101 -71.298118 0.237201 1.651745 -16.343589 -0.000000 -0.000004 0.000001 2.817946 7.449835 -47.416608 3.975395 5.543266 -71.272402 0.379541 2.076179 -20.717444 0.000001 0.000002 0.000001 2.416432 7.232784 -41.295515 3.976797 5.543746 -71.287060 0.529523 2.435826 -24.525975 -0.000002 -0.000002 0.000000 -4.126461 21.353058 -2.025801 0.000000 0.000000 0.000000 -21.913707 29.410777 24.489281 -0.000056 107.646425 0.000062 -60.125848 14.340453 -11.279299 49.904545 33.562450 -17.441684 11.431390 -12.158982 7.800696 -6.278452 -26.632938 -3.654670 -0.000001 -0.000000 -0.000001 0.249904 -3.804205 14.940634 2.023880 -3.842593 55.538724 0.811597 -2.628893 34.307514 0.000002 0.000001 -0.000001 1.128263 -5.542184 26.437084 1.145632 -3.061066 41.030285 0.800417 -2.612472 34.063461 0.000001 -0.000001 -0.000001 1.283869 -5.672055 29.821893 1.502262 -3.427472 47.325264 0.373368 -1.828824 23.076429 0.000000 0.000000 0.000002 1.244955 -5.502217 26.494329 0.986024 -2.867622 37.944675 0.613150 -2.311751 29.706590 -0.000001 0.000001 0.000002 -99.680348 -7.705120 39.841853 106.383372 -6.761559 -5.372289 9.073702 -8.450380 8.233940 -0.468318 0.000003 -0.000004 -0.000000 0.000000 0.000000 -103.603615 18.591379 -18.753767 110.138043 0.107451 4.452280 6.662224 1.505845 -9.212631 -0.706158 -0.000008 0.000003 -0.000000 0.000002 -0.000000 
-38.897800 50.867393 332.709534 189.961399 13.521100 -177.310331 16.786653 -3.991940 -8.858845 3.960995 -0.736599 -2.125365 0.000000 0.000000 0.000000 3.971174 -0.734084 -2.108095 0.911086 0.174949 0.179147 -20.499618 -2.826082 8.645568 0.000000 0.000001 0.000000 1.385420 -5.719505 -11.741859 0.000000 0.000000 0.000000 -18.384006 -40.127344 -47.070590 -180.000032 -123.195166 -180.000032 40.970422 -11.176325 -14.771737 -9.625157 -4.324132 -1.515794 21.379102 38.837562 0.008459 -0.454415 -2.425699 17.060578 0.000000 -0.000001 0.000002 1.241004 5.556779 -31.144051 2.581820 4.855156 -55.984913 0.276267 1.779499 -17.648212 -0.000002 0.000004 0.000004 2.333945 7.139075 -41.314578 3.978627 5.544362 -71.305932 0.262282 1.734964 -17.192174 0.000000 -0.000002 0.000000 2.846248 7.466685 -47.739877 3.975205 5.543206 -71.270456 0.419584 2.179058 -21.796037 -0.000002 0.000001 0.000000 2.416451 7.232780 -41.296020 3.978161 5.544211 -71.301048 0.585054 2.553909 -25.801677 0.000001 0.000000 0.000000 -4.269432 21.023293 -2.430172 0.000000 0.000000 0.000000 -22.824067 29.584292 24.643075 -0.000065 108.149523 0.000062 -60.083938 15.273703 -11.131803 49.905136 33.561309 -17.441679 11.433878 -12.159228 7.799870 -6.274806 -26.631550 -3.651582 -0.000001 0.000000 0.000001 0.250036 -3.804663 14.942280 2.024052 -3.842686 55.541039 0.811660 -2.628995 34.309000 0.000001 -0.000000 -0.000001 1.128557 -5.542712 26.438812 1.145708 -3.061171 41.031767 0.800505 -2.612552 34.064612 0.000001 -0.000000 0.000002 1.283038 -5.670586 29.822453 1.502286 -3.427523 47.325923 0.373415 -1.828924 23.077691 -0.000000 -0.000001 0.000002 1.248119 -5.501240 26.496594 0.986098 -2.867734 37.946352 0.613158 -2.311705 29.706057 -0.000000 -0.000002 -0.000001 -99.718412 -7.735459 39.812394 106.382635 -6.757624 -5.369426 9.072597 -8.429761 8.209947 -0.467149 -0.000014 -0.000002 -0.000000 0.000001 -0.000000 -103.639446 18.573856 -18.759427 110.138645 0.110208 4.460033 6.668386 1.505307 -9.218737 -0.706776 -0.000016 -0.000002 0.000000 0.000003 0.000000 
-38.886810 50.870651 332.708344 189.953954 13.531184 -177.314771 16.777571 -3.979933 -8.845333 3.953005 -0.732007 -2.129828 0.000000 0.000000 0.000000 3.963048 -0.728869 -2.113283 0.909227 0.164207 0.204960 -20.937813 -2.917522 8.648819 -0.000001 0.000000 0.000000 1.385784 -5.726414 -11.728834 0.000000 0.000000 0.000000 -18.401730 -40.104279 -47.092771 -179.999964 -123.229235 -179.999978 41.050560 -11.060300 -14.665977 -9.875555 -4.238465 -2.020547 21.379110 38.837562 0.008462 -0.454402 -2.425722 17.060585 0.000000 -0.000000 -0.000001 1.240745 5.557041 -31.144426 2.581915 4.855223 -55.985992 0.303764 1.863656 -18.513084 -0.000000 -0.000002 0.000000 2.334238 7.139297 -41.318055 3.978893 5.544449 -71.308623 0.288382 1.817125 -18.034344 -0.000001 -0.000003 -0.000000 2.874041 7.483014 -48.056180 3.975053 5.543148 -71.268864 0.461148 2.280150 -22.864171 0.000001 -0.000003 0.000000 2.416468 7.232800 -41.296563 3.978220 5.544226 -71.301561 0.642694 2.669732 -27.066465 -0.000000 -0.000005 0.000001 -4.382717 20.715687 -2.732458 0.000000 0.000000 0.000000 -23.680782 29.747881 24.695013 -0.000017 108.551862 0.000027 -59.952668 16.384382 -10.967003 49.905761 33.560182 -17.441733 11.436411 -12.159725 7.799034 -6.271254 -26.630214 -3.648556 0.000002 -0.000000 -0.000000 0.250169 -3.805097 14.943882 2.024199 -3.842794 55.543310 0.811723 -2.629087 34.310444 0.000001 0.000000 0.000001 1.128865 -5.543221 26.440509 1.145804 -3.061267 41.033352 0.800530 -2.612634 34.065825 0.000000 -0.000000 -0.000000 1.282228 -5.669138 29.823461 1.502372 -3.427575 47.326995 0.373460 -1.829024 23.079124 -0.000001 -0.000002 0.000003 1.251227 -5.500286 26.498837 0.986203 -2.867827 37.947978 0.613139 -2.311669 29.705616 -0.000002 0.000001 0.000002 -99.717094 -7.755243 39.789110 106.382095 -6.767246 -5.366578 9.071802 -8.407977 8.218421 -0.465202 -0.000006 0.000002 -0.000000 0.000000 0.000000 -103.645805 18.548808 -18.763459 110.137360 0.119224 4.466983 6.650454 1.503054 -9.236809 -0.707375 -0.000013 -0.000003 -0.000001 -0.000001 0.000000 
-38.875786 50.872589 332.702057 189.943230 13.542857 -177.317476 16.768939 -3.972829 -8.830657 3.944888 -0.728167 -2.131930 0.000000 0.000000 0.000000 3.954818 -0.724028 -2.115639 0.906900 0.156213 0.232183 -21.411176 -2.995300 8.669107 -0.000000 0.000001 -0.000000 1.385076 -5.737309 -11.717953 0.000000 0.000000 0.000000 -18.413652 -40.072392 -47.113084 -179.999950 -123.249138 -179.999978 41.115304 -10.949171 -14.571611 -10.109453 -4.152937 -2.519846 21.379107 38.837555 0.008452 -0.454421 -2.425686 17.060588 0.000000 0.000002 0.000000 1.240490 5.557298 -31.144959 2.582023 4.855299 -55.987211 0.332068 1.946129 -19.364835 -0.000000 -0.000003 -0.000004 2.334414 7.139414 -41.320192 3.979028 5.544485 -71.309975 0.315228 1.897562 -18.862691 -0.000002 -0.000002 -0.000003 2.901210 7.498773 -48.364607 3.974909 5.543120 -71.267539 0.503795 2.378670 -23.913476 0.000001 0.000000 0.000000 2.416497 7.232798 -41.297147 3.977449 5.543956 -71.293699 0.701829 2.782303 -28.309816 0.000000 0.000002 0.000001 -4.490359 20.422744 -2.985063 0.000000 0.000000 0.000000 -24.488612 29.920911 24.697428 -0.000019 108.890366 0.000030 -59.803142 17.545387 -10.769463 49.906396 33.559069 -17.441800 11.438868 -12.160202 7.798191 -6.267737 -26.628959 -3.645586 0.000002 -0.000001 0.000000 0.250314 -3.805529 14.945477 2.024345 -3.842896 55.545578 0.811777 -2.629180 34.311910 0.000002 -0.000001 -0.000000 1.129164 -5.543740 26.442094 1.145902 -3.061383 41.035339 0.800593 -2.612718 34.067071 0.000000 -0.000002 -0.000001 1.281509 -5.667790 29.825507 1.502474 -3.427679 47.328925 0.373504 -1.829137 23.080603 0.000001 0.000001 -0.000001 1.254277 -5.499358 26.501069 0.986286 -2.867931 37.949583 0.613106 -2.311653 29.705251 0.000000 0.000001 -0.000001 -99.708666 -7.786102 39.773725 106.381515 -6.771251 -5.362791 9.070063 -8.388823 8.170210 -0.463060 -0.000015 -0.000002 -0.000000 -0.000000 -0.000000 -103.652649 18.527660 -18.769211 110.131869 0.130814 4.474946 6.646620 1.500929 -9.253282 -0.707946 -0.000018 0.000002 0.000000 -0.000001 -0.000001 
